<svg xmlns="http://www.w3.org/2000/svg" xmlns:xlink="http://www.w3.org/1999/xlink" width="407.43" height="101.603" viewBox="0 0 407.43 101.603">
  <defs>
    <clipPath id="clip-path">
      <path id="Path_196" data-name="Path 196" d="M-1665.808,474.887l42.7-24.33a2.463,2.463,0,0,0,.012-4.272l-42.574-24.579a7.113,7.113,0,0,0-7.087-.014l-42.9,24.538a2.462,2.462,0,0,0,0,4.277l42.805,24.381A7.114,7.114,0,0,0-1665.808,474.887Z" transform="translate(1716.898 -420.753)" fill="none"/>
    </clipPath>
    <clipPath id="clip-path-2">
      <path id="Path_202" data-name="Path 202" d="M-1644.756,453.376l28.194-16.066-33.205-19.171-33.445,19.131,28.278,16.107A10.282,10.282,0,0,0-1644.756,453.376Z" transform="translate(1683.212 -418.139)" fill="none"/>
    </clipPath>
  </defs>
  <g id="Group_230" data-name="Group 230" transform="translate(1740.175 -357.922)">
    <g id="Group_207" data-name="Group 207" transform="translate(-1597.664 377.189)">
      <g id="Group_206" data-name="Group 206" transform="translate(0)">
        <path id="Path_182" data-name="Path 182" d="M-1401.72,403.68h4v45.385h.345l26.4-24.809h4.914l-31.661,29.71v11.748h-4Zm15.121,38.1,2.642-2.749,20.616,26.683h-4.6Z" transform="translate(1401.72 -403.68)" fill="#1a1a1a"/>
        <path id="Path_183" data-name="Path 183" d="M-1300.483,471.884c0-13.514,9.943-21.8,20.8-21.8,11.364,0,18.559,7.315,18.559,19.2a20.213,20.213,0,0,1-.225,3.24h-37.076v-3.374h35.3l-1.633,1.567c0-11.654-6.053-17.229-14.867-17.229-8.6,0-16.765,6.7-16.765,18.279,0,11.947,8.27,18.424,18.066,18.424a23.558,23.558,0,0,0,13.845-4.447l1.634,2.987a27.043,27.043,0,0,1-15.745,4.886C-1290.594,493.615-1300.483,485.5-1300.483,471.884Z" transform="translate(1343.11 -430.546)" fill="#1a1a1a"/>
        <path id="Path_184" data-name="Path 184" d="M-1174.7,459.635V437.162h-12.5v-3.081l12.584-.372.531-13.7h3.387v13.7h21.969v3.453H-1170.7V459.9c0,8.044,2.323,12.823,11.509,12.823a28.612,28.612,0,0,0,10.965-2.137l1.075,3.054a32.332,32.332,0,0,1-12.638,2.562C-1171.208,476.2-1174.7,469.512-1174.7,459.635Z" transform="translate(1277.529 -413.133)" fill="#1a1a1a"/>
        <path id="Path_185" data-name="Path 185" d="M-1057.89,459.635V437.162h-12.5v-3.081l12.585-.372.531-13.7h3.387v13.7h21.969v3.453h-21.969V459.9c0,8.044,2.323,12.823,11.508,12.823a28.614,28.614,0,0,0,10.965-2.137l1.076,3.054a32.337,32.337,0,0,1-12.639,2.562C-1054.4,476.2-1057.89,469.512-1057.89,459.635Z" transform="translate(1209.904 -413.133)" fill="#1a1a1a"/>
        <path id="Path_186" data-name="Path 186" d="M-945.257,453.141V407.133h-5.934V403.68h9.932v49.979c0,6.517,3.159,9.584,9,9.584a19.349,19.349,0,0,0,8.509-2.137l1.275,3.081a21.662,21.662,0,0,1-10.381,2.562C-940.757,466.749-945.257,462.587-945.257,453.141Z" transform="translate(1140.892 -403.68)" fill="#1a1a1a"/>
        <path id="Path_187" data-name="Path 187" d="M-866.032,471.884c0-13.514,9.943-21.8,20.8-21.8,11.364,0,18.559,7.315,18.559,19.2a20.129,20.129,0,0,1-.225,3.24h-37.076v-3.374h35.295l-1.632,1.567c0-11.654-6.053-17.229-14.867-17.229-8.6,0-16.765,6.7-16.765,18.279,0,11.947,8.27,18.424,18.066,18.424a23.558,23.558,0,0,0,13.845-4.447l1.634,2.987a27.045,27.045,0,0,1-15.745,4.886C-856.142,493.615-866.032,485.5-866.032,471.884Z" transform="translate(1091.59 -430.546)" fill="#1a1a1a"/>
      </g>
    </g>
    <g id="Group_214" data-name="Group 214" transform="translate(-1740.175 357.922)">
      <path id="Path_188" data-name="Path 188" d="M-1740.175,423.051v-30.13a7.756,7.756,0,0,1,3.983-6.776l48.928-27.243a7.757,7.757,0,0,1,7.481-.035l50.059,27.252a7.756,7.756,0,0,1,4.046,6.7l.328,30.218a7.757,7.757,0,0,1-3.877,6.825l-49.573,28.621a7.757,7.757,0,0,1-7.756,0l-49.741-28.718A7.757,7.757,0,0,1-1740.175,423.051Z" transform="translate(1740.175 -357.922)" fill="#e6e6e6"/>
      <path id="Path_189" data-name="Path 189" d="M-1733.4,390.409l49.92,28.821a8.168,8.168,0,0,0,8.167,0l49.7-28.692a2.268,2.268,0,0,0-.048-3.955l-50.7-27.663a8.17,8.17,0,0,0-7.9.044l-49.1,27.5A2.268,2.268,0,0,0-1733.4,390.409Z" transform="translate(1736.911 -357.922)" fill="#ccc"/>
      <path id="Path_190" data-name="Path 190" d="M-1665.808,474.887l42.7-24.33a2.463,2.463,0,0,0,.012-4.272l-42.574-24.579a7.113,7.113,0,0,0-7.087-.014l-42.9,24.538a2.462,2.462,0,0,0,0,4.277l42.805,24.381A7.114,7.114,0,0,0-1665.808,474.887Z" transform="translate(1726.699 -394.297)" fill="#fd8677"/>
      <g id="Group_210" data-name="Group 210" transform="translate(9.801 26.456)">
        <g id="Group_209" data-name="Group 209" clip-path="url(#clip-path)">
          <g id="Group_208" data-name="Group 208">
            <path id="Path_191" data-name="Path 191" d="M-1639.811,529.528l11.59,6.6a7.112,7.112,0,0,0,7.041,0l6.009-3.424C-1621.666,523.075-1630.262,526.957-1639.811,529.528Z" transform="translate(1672.269 -481.995)" fill="#6f1258"/>
            <path id="Path_192" data-name="Path 192" d="M-1636.59,500.245h-7.656c-5.286.9-13.815,5.494-22.309,7.648l11.261,6.414c9.549-2.572,18.145-6.453,24.641,3.177l10.324-5.884C-1624.948,506.108-1631.763,501.318-1636.59,500.245Z" transform="translate(1687.753 -466.774)" fill="#b92381"/>
            <path id="Path_193" data-name="Path 193" d="M-1645.744,474.576l-47.141-.359c-4.129,1.775-12.2,4.247-19.6,1.15l-3.173,1.815a2.462,2.462,0,0,0,0,4.276l8.636,4.919c6.206-.13,16.476-4.572,22.479-7.621l29.912-.245c5.221,2.927,11.56,7.279,13.341,13.355l11.376-6.483C-1631.735,480.616-1638.528,476.232-1645.744,474.576Z" transform="translate(1716.898 -451.705)" fill="#ffa973"/>
            <path id="Path_194" data-name="Path 194" d="M-1617.033,446.285l-42.573-24.579a7.112,7.112,0,0,0-7.087-.014l-39.726,22.723c7.4,3.1,15.472.625,19.6-1.15l47.139.359c7.217,1.655,14.01,6.04,15.833,10.808l6.8-3.875A2.462,2.462,0,0,0-1617.033,446.285Z" transform="translate(1710.831 -420.753)" fill="#ffd454"/>
            <path id="Path_195" data-name="Path 195" d="M-1641.045,484.416l-29.912.245c-6,3.049-16.273,7.491-22.479,7.621l11.318,6.447c8.494-2.155,17.023-6.748,22.309-7.648h7.656c4.828,1.073,11.642,5.863,16.261,11.355l8.187-4.665C-1629.486,491.695-1635.823,487.342-1641.045,484.416Z" transform="translate(1703.315 -457.61)" fill="#e96f73"/>
          </g>
        </g>
      </g>
      <path id="Path_197" data-name="Path 197" d="M-1646.125,454.155l29.563-16.845-33.205-19.171-33.445,19.131,29.646,16.886A7.517,7.517,0,0,0-1646.125,454.155Z" transform="translate(1707.197 -392.784)" fill="#1a1a1a"/>
      <g id="Group_213" data-name="Group 213" transform="translate(23.985 25.355)">
        <g id="Group_212" data-name="Group 212" clip-path="url(#clip-path-2)">
          <g id="Group_211" data-name="Group 211" transform="translate(0 0)">
            <path id="Path_198" data-name="Path 198" d="M-1610.138,428.037l-17.143-9.9-17.09,9.776,17.093,9.774Z" transform="translate(1660.725 -418.139)" fill="#1a1a1a"/>
            <path id="Path_199" data-name="Path 199" d="M-1666.857,441.356l-16.354,9.355,17,9.682,16.448-9.263Z" transform="translate(1683.212 -431.58)" fill="#666"/>
            <path id="Path_200" data-name="Path 200" d="M-1586.635,441.646l-17.14,9.652,16.239,9.286,16.962-9.665Z" transform="translate(1637.222 -431.748)" fill="#666"/>
            <path id="Path_201" data-name="Path 201" d="M-1642.839,473.832l11.278,6.424a10.281,10.281,0,0,0,10.177,0l11.232-6.4-16.24-9.286Z" transform="translate(1659.838 -445.019)" fill="#1a1a1a"/>
          </g>
        </g>
      </g>
    </g>
  </g>
</svg>
