<svg xmlns="http://www.w3.org/2000/svg" xmlns:xlink="http://www.w3.org/1999/xlink" width="308.488" height="216.193" viewBox="0 0 308.488 216.193">
  <defs>
    <clipPath id="clip-path">
      <path id="Path_23" data-name="Path 23" d="M874.341,400.792l49.719-28.331a2.867,2.867,0,0,0,.014-4.974L874.5,338.865a8.282,8.282,0,0,0-8.253-.017l-49.953,28.574a2.867,2.867,0,0,0,0,4.98l49.845,28.39A8.282,8.282,0,0,0,874.341,400.792Z" transform="translate(-814.849 -337.755)" fill="none"/>
    </clipPath>
    <clipPath id="clip-path-2">
      <path id="Path_29" data-name="Path 29" d="M899.785,375.671l32.831-18.708L893.951,334.64l-38.945,22.277,32.928,18.756A11.97,11.97,0,0,0,899.785,375.671Z" transform="translate(-855.006 -334.64)" fill="none"/>
    </clipPath>
  </defs>
  <g id="Group_230" data-name="Group 230" transform="translate(-584.993 -262.856)">
    <g id="Group_25" data-name="Group 25" transform="translate(668.123 262.856)">
      <path id="Path_15" data-name="Path 15" d="M787.1,338.7V303.611a9.032,9.032,0,0,1,4.638-7.891L848.716,264a9.03,9.03,0,0,1,8.711-.042l58.292,31.734a9.031,9.031,0,0,1,4.712,7.806l.38,35.188a9.031,9.031,0,0,1-4.515,7.946l-57.725,33.328a9.032,9.032,0,0,1-9.031,0l-57.922-33.441A9.032,9.032,0,0,1,787.1,338.7Z" transform="translate(-787.103 -262.856)" fill="#e6e6e6"/>
      <path id="Path_16" data-name="Path 16" d="M795.145,300.686l58.129,33.561a9.511,9.511,0,0,0,9.512,0l57.869-33.41a2.641,2.641,0,0,0-.056-4.606l-59.042-32.212a9.511,9.511,0,0,0-9.2.051L795.174,296.1A2.641,2.641,0,0,0,795.145,300.686Z" transform="translate(-791.06 -262.856)" fill="#ccc"/>
      <path id="Path_17" data-name="Path 17" d="M874.341,400.792l49.719-28.331a2.867,2.867,0,0,0,.014-4.974L874.5,338.865a8.282,8.282,0,0,0-8.253-.017l-49.953,28.574a2.867,2.867,0,0,0,0,4.98l49.845,28.39A8.282,8.282,0,0,0,874.341,400.792Z" transform="translate(-803.437 -306.949)" fill="#fd8677"/>
      <g id="Group_21" data-name="Group 21" transform="translate(11.412 30.807)">
        <g id="Group_20" data-name="Group 20" clip-path="url(#clip-path)">
          <g id="Group_19" data-name="Group 19">
            <path id="Path_18" data-name="Path 18" d="M906.743,467.34l13.5,7.687a8.281,8.281,0,0,0,8.2,0l7-3.987C927.872,459.825,917.862,464.345,906.743,467.34Z" transform="translate(-868.946 -411.99)" fill="#6f1258"/>
            <path id="Path_19" data-name="Path 19" d="M909.755,432.515H900.84c-6.155,1.048-16.088,6.4-25.978,8.906l13.113,7.469c11.119-3,21.129-7.515,28.692,3.7l12.023-6.851C923.31,439.343,915.376,433.765,909.755,432.515Z" transform="translate(-850.178 -393.539)" fill="#b92381"/>
            <path id="Path_20" data-name="Path 20" d="M897.7,401.907l-54.892-.418c-4.808,2.066-14.2,4.946-22.825,1.339l-3.695,2.114a2.867,2.867,0,0,0,0,4.98l10.056,5.727c7.226-.152,19.186-5.324,26.176-8.874l34.831-.285c6.08,3.408,13.461,8.476,15.534,15.552l13.247-7.549C914.018,408.94,906.109,403.835,897.7,401.907Z" transform="translate(-814.849 -375.275)" fill="#ffa973"/>
            <path id="Path_21" data-name="Path 21" d="M931.428,367.487l-49.575-28.622a8.281,8.281,0,0,0-8.253-.017l-46.259,26.46c8.622,3.607,18.017.728,22.825-1.339l54.892.418c8.4,1.927,16.313,7.033,18.437,12.585l7.918-4.512A2.868,2.868,0,0,0,931.428,367.487Z" transform="translate(-822.204 -337.755)" fill="#ffd454"/>
            <path id="Path_22" data-name="Path 22" d="M903.825,413.646l-34.832.285c-6.99,3.551-18.949,8.723-26.176,8.875L856,430.313c9.89-2.509,19.823-7.858,25.978-8.906h8.915c5.62,1.25,13.555,6.828,18.935,13.223l9.534-5.432C917.286,422.122,909.905,417.054,903.825,413.646Z" transform="translate(-831.314 -382.431)" fill="#e96f73"/>
          </g>
        </g>
      </g>
      <path id="Path_24" data-name="Path 24" d="M898.193,376.578l34.423-19.615L893.951,334.64l-38.945,22.277,34.521,19.663A8.753,8.753,0,0,0,898.193,376.578Z" transform="translate(-827.077 -305.115)" fill="#1a1a1a"/>
      <g id="Group_24" data-name="Group 24" transform="translate(27.929 29.525)">
        <g id="Group_23" data-name="Group 23" clip-path="url(#clip-path-2)">
          <g id="Group_22" data-name="Group 22" transform="translate(0 0)">
            <path id="Path_25" data-name="Path 25" d="M941.171,346.165,921.208,334.64l-19.9,11.383,19.9,11.382Z" transform="translate(-882.263 -334.64)" fill="#1a1a1a"/>
            <path id="Path_26" data-name="Path 26" d="M874.05,362.316l-19.044,10.893,19.8,11.275L893.955,373.7Z" transform="translate(-855.006 -350.932)" fill="#666"/>
            <path id="Path_27" data-name="Path 27" d="M969.66,362.661,949.7,373.9l18.91,10.813,19.751-11.255Z" transform="translate(-910.752 -351.136)" fill="#666"/>
            <path id="Path_28" data-name="Path 28" d="M903.133,400.774l13.134,7.481a11.969,11.969,0,0,0,11.851,0L941.2,400.8l-18.91-10.813Z" transform="translate(-883.338 -367.223)" fill="#1a1a1a"/>
          </g>
        </g>
      </g>
    </g>
    <g id="Group_27" data-name="Group 27" transform="translate(584.993 405.605)">
      <g id="Group_26" data-name="Group 26" transform="translate(0 0)">
        <path id="Path_30" data-name="Path 30" d="M584.993,609.914h4.655v52.851h.4l30.745-28.89h5.722l-36.869,34.6v13.681h-4.655ZM602.6,654.282l3.078-3.2,24.008,31.072h-5.352Z" transform="translate(-584.993 -609.914)" fill="#1a1a1a"/>
        <path id="Path_31" data-name="Path 31" d="M705.672,690.621c0-15.737,11.58-25.384,24.225-25.384,13.234,0,21.612,8.518,21.612,22.354a23.326,23.326,0,0,1-.263,3.772H708.071v-3.928h41.1l-1.9,1.824c0-13.571-7.049-20.064-17.312-20.064-10.017,0-19.523,7.806-19.523,21.286,0,13.912,9.63,21.455,21.039,21.455a27.433,27.433,0,0,0,16.122-5.177l1.9,3.479a31.491,31.491,0,0,1-18.334,5.689C717.189,715.927,705.672,706.482,705.672,690.621Z" transform="translate(-656.036 -642.482)" fill="#1a1a1a"/>
        <path id="Path_32" data-name="Path 32" d="M855.27,675.526V649.357H840.708v-3.589l14.654-.432.619-15.953h3.944v15.953h25.583v4.021H859.926v26.479c0,9.367,2.7,14.932,13.4,14.932a33.314,33.314,0,0,0,12.769-2.489l1.252,3.558a37.666,37.666,0,0,1-14.717,2.983C859.336,694.819,855.27,687.028,855.27,675.526Z" transform="translate(-735.53 -621.375)" fill="#1a1a1a"/>
        <path id="Path_33" data-name="Path 33" d="M994.516,675.526V649.357H979.954v-3.589l14.655-.432.619-15.953h3.945v15.953h25.582v4.021H999.172v26.479c0,9.367,2.7,14.932,13.4,14.932a33.312,33.312,0,0,0,12.769-2.489l1.252,3.558a37.661,37.661,0,0,1-14.716,2.983C998.582,694.819,994.516,687.028,994.516,675.526Z" transform="translate(-817.502 -621.375)" fill="#1a1a1a"/>
        <path id="Path_34" data-name="Path 34" d="M1128.963,667.512V613.935h-6.911v-4.021h11.567v58.2c0,7.59,3.679,11.16,10.48,11.16a22.535,22.535,0,0,0,9.909-2.488l1.484,3.589c-4.174,1.978-7.25,2.983-12.09,2.983C1134.2,683.358,1128.963,678.511,1128.963,667.512Z" transform="translate(-901.154 -609.914)" fill="#1a1a1a"/>
        <path id="Path_35" data-name="Path 35" d="M1223.568,690.621c0-15.737,11.578-25.384,24.224-25.384,13.233,0,21.611,8.518,21.611,22.354a23.437,23.437,0,0,1-.262,3.772h-43.176v-3.928h41.1l-1.9,1.824c0-13.571-7.048-20.064-17.312-20.064-10.016,0-19.523,7.806-19.523,21.286,0,13.912,9.63,21.455,21.039,21.455a27.441,27.441,0,0,0,16.123-5.177l1.9,3.479a31.491,31.491,0,0,1-18.334,5.689C1235.084,715.927,1223.568,706.482,1223.568,690.621Z" transform="translate(-960.916 -642.482)" fill="#1a1a1a"/>
      </g>
    </g>
  </g>
</svg>
