<svg xmlns="http://www.w3.org/2000/svg" xmlns:xlink="http://www.w3.org/1999/xlink" width="2284" height="936" viewBox="0 0 2284 936">
  <defs>
    <clipPath id="clip-path">
      <rect id="Rectangle_272" data-name="Rectangle 272" width="2284" height="936" transform="translate(2930 2512)" fill="#fff"/>
    </clipPath>
  </defs>
  <g id="Mask_Group_18" data-name="Mask Group 18" transform="translate(-2930 -2512)" clip-path="url(#clip-path)">
    <g id="Group_568" data-name="Group 568">
      <g id="Mask_Group_17" data-name="Mask Group 17" transform="matrix(1, 0.017, -0.017, 1, 1802.363, 3563.423)">
        <path id="Path_224" data-name="Path 224" d="M915.005-381.516l-14.032-.295c6.762-148.805,534.949-220.822,1146.536-304.212,292.591-39.894,595.141-81.145,865.246-134.074,306.411-60.042,519.533-125.815,651.536-201.076l9.015,7.314c-133.539,76.134-348.344,142.515-656.666,202.927-270.661,53.037-573.5,94.328-866.371,134.26C1750-635.73,1466.385-597.06,1257.557-550.606c-111.2,24.737-192.676,49.72-249.1,76.381C947.093-445.215,916.522-414.892,915.005-381.516Z" fill="#f8f8f8"/>
      </g>
      <g id="Group_245" data-name="Group 245" transform="translate(4720.975 3494.017)">
        <rect id="Rectangle_133" data-name="Rectangle 133" width="3.263" height="28.307" transform="matrix(0.501, -0.865, 0.865, 0.501, -479.288, -63.317)" fill="#fafafa"/>
        <rect id="Rectangle_134" data-name="Rectangle 134" width="3.263" height="50.241" transform="matrix(0.501, -0.865, 0.865, 0.501, -429.575, -74.312)" fill="#fafafa"/>
        <rect id="Rectangle_135" data-name="Rectangle 135" width="3.263" height="72.176" transform="matrix(0.501, -0.865, 0.865, 0.501, -379.862, -85.306)" fill="#fafafa"/>
        <rect id="Rectangle_136" data-name="Rectangle 136" width="3.263" height="118.313" transform="matrix(0.501, -0.865, 0.865, 0.501, -351.721, -108.797)" fill="#fafafa"/>
        <rect id="Rectangle_137" data-name="Rectangle 137" width="3.263" height="115.319" transform="translate(-280.438 -107.296) rotate(-59.921)" fill="#fafafa"/>
        <rect id="Rectangle_138" data-name="Rectangle 138" width="3.263" height="151.538" transform="matrix(0.501, -0.865, 0.865, 0.501, -242.428, -125.072)" fill="#fafafa"/>
        <rect id="Rectangle_139" data-name="Rectangle 139" width="3.263" height="159.945" transform="translate(-181.013 -129.286) rotate(-59.921)" fill="#fafafa"/>
        <rect id="Rectangle_140" data-name="Rectangle 140" width="3.263" height="189.319" transform="matrix(0.501, -0.865, 0.865, 0.501, -137.738, -144.011)" fill="#fafafa"/>
        <rect id="Rectangle_141" data-name="Rectangle 141" width="3.263" height="209.06" transform="matrix(0.501, -0.865, 0.865, 0.501, -81.588, -151.275)" fill="#fafafa"/>
        <rect id="Rectangle_142" data-name="Rectangle 142" width="3.263" height="240.521" transform="matrix(0.501, -0.865, 0.865, 0.501, -40.121, -167.048)" fill="#fafafa"/>
        <rect id="Rectangle_143" data-name="Rectangle 143" width="3.263" height="246.919" transform="translate(17.835 -173.264) rotate(-59.921)" fill="#fafafa"/>
        <rect id="Rectangle_144" data-name="Rectangle 144" width="3.263" height="268.259" transform="translate(68.063 -183.962) rotate(-59.921)" fill="#fafafa"/>
        <rect id="Rectangle_145" data-name="Rectangle 145" width="3.263" height="317.69" transform="matrix(0.501, -0.865, 0.865, 0.501, 99.178, -205.729)" fill="#fafafa"/>
        <rect id="Rectangle_146" data-name="Rectangle 146" width="3.263" height="316.773" transform="translate(163.466 -208.281) rotate(-59.921)" fill="#fafafa"/>
        <rect id="Rectangle_147" data-name="Rectangle 147" width="3.263" height="332.581" transform="matrix(0.501, -0.865, 0.865, 0.501, 201.952, -225.78)" fill="#fafafa"/>
        <rect id="Rectangle_148" data-name="Rectangle 148" width="3.263" height="257.897" transform="translate(266.511 -228.174) rotate(-59.921)" fill="#fafafa"/>
        <rect id="Rectangle_149" data-name="Rectangle 149" width="3.263" height="210.89" transform="matrix(0.501, -0.865, 0.865, 0.501, 308.595, -243.588)" fill="#fafafa"/>
        <rect id="Rectangle_150" data-name="Rectangle 150" width="3.263" height="144.753" transform="translate(365.824 -250.23) rotate(-59.921)" fill="#fafafa"/>
        <rect id="Rectangle_151" data-name="Rectangle 151" width="3.263" height="95.084" transform="matrix(0.501, -0.865, 0.865, 0.501, 407.393, -265.941)" fill="#fafafa"/>
        <rect id="Rectangle_152" data-name="Rectangle 152" width="3.263" height="34.655" transform="translate(461.089 -274.627) rotate(-59.921)" fill="#fafafa"/>
        <rect id="Rectangle_153" data-name="Rectangle 153" width="25.111" height="3.263" transform="translate(468 -49.304) rotate(-30.071)" fill="#fafafa"/>
        <rect id="Rectangle_154" data-name="Rectangle 154" width="101.505" height="3.263" transform="translate(401.84 -50.826) rotate(-30.079)" fill="#fafafa"/>
        <rect id="Rectangle_155" data-name="Rectangle 155" width="182.809" height="3.263" transform="matrix(0.866, -0.5, 0.5, 0.866, 332.754, -49.307)" fill="#fafafa"/>
        <rect id="Rectangle_156" data-name="Rectangle 156" width="259.305" height="3.263" transform="matrix(0.866, -0.5, 0.5, 0.866, 266.506, -50.849)" fill="#fafafa"/>
        <rect id="Rectangle_157" data-name="Rectangle 157" width="336.703" height="3.263" transform="translate(198.339 -52.29) rotate(-30.079)" fill="#fafafa"/>
        <rect id="Rectangle_158" data-name="Rectangle 158" width="421.455" height="3.262" transform="translate(126.118 -49.301) rotate(-30.009)" fill="#fafafa"/>
        <rect id="Rectangle_159" data-name="Rectangle 159" width="435.954" height="3.263" transform="translate(60.361 -51.898) rotate(-30.079)" fill="#fafafa"/>
        <rect id="Rectangle_160" data-name="Rectangle 160" width="401.632" height="3.263" transform="translate(-12.856 -49.27) rotate(-30.079)" fill="#fafafa"/>
        <rect id="Rectangle_161" data-name="Rectangle 161" width="353.717" height="3.263" transform="translate(-74.933 -51.92) rotate(-29.97)" fill="#fafafa"/>
        <rect id="Rectangle_162" data-name="Rectangle 162" width="317.688" height="3.263" transform="translate(-150.215 -49.276) rotate(-30.079)" fill="#fafafa"/>
        <rect id="Rectangle_163" data-name="Rectangle 163" width="238.161" height="3.263" transform="translate(-214.354 -51.913) rotate(-30.079)" fill="#fafafa"/>
        <rect id="Rectangle_164" data-name="Rectangle 164" width="199.574" height="3.263" transform="translate(-282.379 -52.297) rotate(-30.079)" fill="#fafafa"/>
        <rect id="Rectangle_165" data-name="Rectangle 165" width="158.741" height="3.263" transform="translate(-351.715 -51.918) rotate(-30.079)" fill="#fafafa"/>
        <rect id="Rectangle_166" data-name="Rectangle 166" width="119.08" height="3.263" transform="translate(-420.394 -51.923) rotate(-30.079)" fill="#fafafa"/>
        <rect id="Rectangle_167" data-name="Rectangle 167" width="47.452" height="3.263" transform="translate(-489.073 -51.928) rotate(-30.079)" fill="#fafafa"/>
      </g>
    </g>
  </g>
</svg>
