<svg xmlns="http://www.w3.org/2000/svg" xmlns:xlink="http://www.w3.org/1999/xlink" width="192.649" height="192.649" viewBox="0 0 192.649 192.649">
  <defs>
    <filter id="Ellipse_36" x="0" y="0" width="192.649" height="192.649" filterUnits="userSpaceOnUse">
      <feOffset dy="1.5" input="SourceAlpha"/>
      <feGaussianBlur stdDeviation="3" result="blur"/>
      <feFlood flood-color="#454545" flood-opacity="0.059"/>
      <feComposite operator="in" in2="blur"/>
      <feComposite in="SourceGraphic"/>
    </filter>
    <linearGradient id="linear-gradient" x1="0.092" y1="-0.711" x2="0.877" y2="2.095" gradientUnits="objectBoundingBox">
      <stop offset="0" stop-color="#fd8677"/>
      <stop offset="1" stop-color="#ffd454"/>
    </linearGradient>
  </defs>
  <g id="Group_231" data-name="Group 231" transform="translate(8.696 7.217)">
    <g transform="matrix(1, 0, 0, 1, -8.7, -7.22)" filter="url(#Ellipse_36)">
      <circle id="Ellipse_36-2" data-name="Ellipse 36" cx="87.324" cy="87.324" r="87.324" transform="translate(9 7.5)" fill="#fff"/>
    </g>
    <g id="Group_119" data-name="Group 119" transform="translate(0 0)">
      <ellipse id="Ellipse_33" data-name="Ellipse 33" cx="71.443" cy="71.443" rx="71.443" ry="71.443" transform="matrix(0.259, -0.966, 0.966, 0.259, 0, 138.018)" fill="url(#linear-gradient)"/>
      <g id="Group_134" data-name="Group 134" transform="translate(37.535 43.762)">
        <path id="Path_122" data-name="Path 122" d="M2295.357,3396.992a7.129,7.129,0,0,1,1.7.206A6.686,6.686,0,0,0,2295.357,3396.992Z" transform="translate(-2246.552 -3396.991)" fill="#fff" opacity="0.447" style="isolation: isolate"/>
        <path id="Path_123" data-name="Path 123" d="M2332.493,3416.6l-20.475-11.149,20.709,11.3C2332.649,3416.7,2332.576,3416.643,2332.493,3416.6Z" transform="translate(-2237.284 -3392.287)" fill="#fff" opacity="0.447" style="isolation: isolate"/>
        <path id="Path_124" data-name="Path 124" d="M2362.692,3421.977a6.693,6.693,0,0,0-2.217-4.868,1.884,1.884,0,0,1,.171.222,1.954,1.954,0,0,1-.716,2.667l-17.78,10.265,11.147,6.435a2.122,2.122,0,0,1-.009,3.682l-36.805,20.971a6.126,6.126,0,0,1-6.072,0l-36.9-21.009a2.126,2.126,0,0,1,0-3.688l11.324-6.476-17.818-10.288a1.953,1.953,0,0,1,.021-3.4l18.427-10.321-18.037,10.042a6.7,6.7,0,0,0-3.436,5.84v25.973a6.689,6.689,0,0,0,3.338,5.8l42.877,24.755a6.685,6.685,0,0,0,6.692,0l42.73-24.671a6.691,6.691,0,0,0,3.342-5.884Z" transform="translate(-2263.996 -3391.885)" fill="#fff" opacity="0.2" style="isolation: isolate"/>
        <path id="Path_125" data-name="Path 125" d="M2307.031,3436.152l-25.212-14.556-11.324,6.476a2.124,2.124,0,0,0,0,3.688l36.9,21.009a6.126,6.126,0,0,0,6.072,0l36.8-20.971a2.123,2.123,0,0,0,.009-3.683l-11.146-6.435-25.057,14.468A7.047,7.047,0,0,1,2307.031,3436.152Z" transform="translate(-2260.976 -3383.306)" fill="#fff" opacity="0.5" style="isolation: isolate"/>
        <path id="Path_126" data-name="Path 126" d="M2325.775,3412.953l-.448-.244a6.7,6.7,0,0,1,1.035.763A1.934,1.934,0,0,0,2325.775,3412.953Z" transform="translate(-2229.882 -3388.248)" fill="#fff"/>
        <path id="Path_127" data-name="Path 127" d="M2320.677,3410.079l-22.546-12.3a7.079,7.079,0,0,0-1.681-.653,6.645,6.645,0,0,1,1.552.607Z" transform="translate(-2245.943 -3396.917)" fill="#fff"/>
        <path id="Path_128" data-name="Path 128" d="M2305.126,3396.991a7.049,7.049,0,0,0-3.433.9l-23.9,13.387,24.137-13.439A6.673,6.673,0,0,1,2305.126,3396.991Z" transform="translate(-2256.321 -3396.991)" fill="#fff"/>
        <path id="Path_129" data-name="Path 129" d="M2359.915,3422.437a1.909,1.909,0,0,0-.171-.222,6.72,6.72,0,0,0-1.035-.763l-20.71-11.3-22.676-12.348a6.667,6.667,0,0,0-1.552-.607,7.136,7.136,0,0,0-1.7-.206,6.676,6.676,0,0,0-3.2.844l-24.137,13.439-18.427,10.321a1.953,1.953,0,0,0-.022,3.4l17.819,10.289,25.212,14.557a7.046,7.046,0,0,0,7.043,0l25.057-14.468,17.78-10.265A1.954,1.954,0,0,0,2359.915,3422.437Z" transform="translate(-2263.264 -3396.991)" fill="#fff"/>
      </g>
    </g>
  </g>
</svg>
