<svg xmlns="http://www.w3.org/2000/svg" width="229" height="229" viewBox="0 0 229 229">
  <g id="Group_561" data-name="Group 561" transform="translate(-1714 2361)">
    <rect id="Rectangle_267" data-name="Rectangle 267" width="229" height="229" transform="translate(1714 -2361)" fill="none"/>
    <g id="Group_195" data-name="Group 195" transform="translate(-1260.752 -4740.024)">
      <g id="Group_189" data-name="Group 189" transform="translate(3009.532 2419.469)">
        <g id="Group_188" data-name="Group 188" transform="translate(26.42 27.541)" opacity="0.48">
          <path id="Path_161" data-name="Path 161" d="M3045.852,2487.947l53.542-31.088,53.316,30.772-53.491,31.127Z" transform="translate(-3045.852 -2456.858)" fill="#767575"/>
          <path id="Path_162" data-name="Path 162" d="M3099.218,2526.414l.176,61.344-53.366-30.811-.175-61.344Z" transform="translate(-3045.852 -2464.514)" fill="#333"/>
          <path id="Path_163" data-name="Path 163" d="M3112.36,2526.367l.046,61.3,53.326-30.781.128-61.685Z" transform="translate(-3059.003 -2464.425)" fill="#4d4d4d"/>
        </g>
        <path id="Path_164" data-name="Path 164" d="M3129.305,2536.36l-.176,61.344,53.366-30.811.176-61.343Z" transform="translate(-3035.888 -2438.939)" fill="gray" opacity="0.2"/>
        <path id="Path_165" data-name="Path 165" d="M3146.124,2545.393l-.157,54.631,47.526-27.439.156-54.63Z" transform="translate(-3039.215 -2441.39)" fill="gray" opacity="0.2"/>
        <path id="Path_166" data-name="Path 166" d="M3162.1,2557.2l-.134,46.807,40.72-23.509.134-46.808Z" transform="translate(-3042.376 -2444.5)" fill="gray" opacity="0.2"/>
        <path id="Path_167" data-name="Path 167" d="M3099.585,2503.664l53.16-30.611-53.419-30.719-53.161,30.611Z" transform="translate(-3019.494 -2426.447)" fill="gray" opacity="0.2"/>
        <path id="Path_168" data-name="Path 168" d="M3100.691,2486.386l47.343-27.261-47.573-27.357-47.343,27.261Z" transform="translate(-3020.868 -2424.359)" fill="gray" opacity="0.2"/>
        <path id="Path_169" data-name="Path 169" d="M3102.74,2469.332l40.563-23.357-40.761-23.439-40.563,23.358Z" transform="translate(-3022.619 -2422.535)" fill="gray" opacity="0.2"/>
        <path id="Path_170" data-name="Path 170" d="M3083.312,2538.36l.176,61.343-53.366-30.811-.176-61.344Z" transform="translate(-3016.289 -2439.333)" fill="gray" opacity="0.2"/>
        <path id="Path_171" data-name="Path 171" d="M3067.935,2547.393l.157,54.631-47.526-27.439-.157-54.63Z" transform="translate(-3014.404 -2441.785)" fill="gray" opacity="0.2"/>
        <path id="Path_172" data-name="Path 172" d="M3053.646,2559.2l.134,46.808-40.721-23.51-.134-46.808Z" transform="translate(-3012.926 -2444.895)" fill="gray" opacity="0.2"/>
      </g>
      <path id="Path_173" data-name="Path 173" d="M3104.359,2453.452l33.941-19.545-34.106-19.612-33.941,19.544Z" transform="translate(-14.722 -1.437)" fill="gray" opacity="0.2"/>
      <path id="Path_174" data-name="Path 174" d="M3105.575,2438.593l27.364-15.757-27.5-15.812-27.364,15.757Z" transform="translate(-16.268 0)" fill="gray" opacity="0.2"/>
      <path id="Path_175" data-name="Path 175" d="M3195.794,2578.07l-.09,31.576,27.469-15.859.09-31.576Z" transform="translate(-39.512 -30.666)" fill="gray" opacity="0.2"/>
      <path id="Path_176" data-name="Path 176" d="M3023.221,2579.965l.091,31.575-27.469-15.859-.091-31.576Z" transform="translate(0 -31.04)" fill="gray" opacity="0.2"/>
      <path id="Path_177" data-name="Path 177" d="M3178.792,2566.814l-.112,39.165,34.072-19.671.112-39.166Z" transform="translate(-36.148 -27.688)" fill="gray" opacity="0.2"/>
      <path id="Path_178" data-name="Path 178" d="M3037.635,2566.814l.112,39.165-34.072-19.671-.112-39.166Z" transform="translate(-1.544 -27.688)" fill="gray" opacity="0.2"/>
    </g>
  </g>
</svg>
