<svg xmlns="http://www.w3.org/2000/svg" width="229" height="229" viewBox="0 0 229 229">
  <g id="Group_562" data-name="Group 562" transform="translate(-2012 2361)">
    <rect id="Rectangle_268" data-name="Rectangle 268" width="229" height="229" transform="translate(2012 -2361)" fill="none"/>
    <g id="Group_558" data-name="Group 558" transform="translate(87.631 -5710.26)" opacity="0.6">
      <g id="Group_557" data-name="Group 557" opacity="0.628">
        <path id="Path_500" data-name="Path 500" d="M2039.3,3383.26l38.013,13.793,31,26.473,7.693,40.5-7.467,39.823-30.885,26.051-38.352,13.772-38.013-13.772-31-26.277-7.92-40.158,7.619-39.638,31.073-27Z" fill="#4d4d4d"/>
        <path id="Path_501" data-name="Path 501" d="M2062.247,3424.587l15.066-27.537-38.126.092Z" fill="#333"/>
        <path id="Path_502" data-name="Path 502" d="M2016.522,3424.588h45.726l-23.06-27.444Z" fill="#999"/>
        <path id="Path_503" data-name="Path 503" d="M2001.06,3396.825l15.461,27.763,22.665-27.444Z" fill="#333"/>
        <path id="Path_504" data-name="Path 504" d="M2077.314,3397.051l7.924,13.655-22.99,13.881Z" fill="#4d4d4d"/>
        <path id="Path_505" data-name="Path 505" d="M2077.313,3397.051l31,26.473-10.812,7.594Z" fill="#999"/>
        <path id="Path_506" data-name="Path 506" d="M2062.248,3424.587l35.252,6.53-12.261-20.411Z" fill="#333"/>
        <path id="Path_507" data-name="Path 507" d="M2001.061,3396.825l15.461,27.763-22.735,38.877-12.517-33.32Z" fill="#999"/>
        <path id="Path_508" data-name="Path 508" d="M1969.989,3423.827l11.282,6.318,19.791-33.32Z" fill="#4d4d4d"/>
        <path id="Path_509" data-name="Path 509" d="M1969.989,3450.021l23.8,13.444-12.517-33.32Z" fill="#4d4d4d"/>
        <path id="Path_510" data-name="Path 510" d="M1962.371,3463.465h31.418l-23.8-13.444Z" fill="#333"/>
        <path id="Path_511" data-name="Path 511" d="M1969.988,3423.827l11.282,6.318-18.9,33.32Z" fill="#999"/>
        <path id="Path_512" data-name="Path 512" d="M2040.218,3474.544" fill="none" stroke="#f0f" stroke-miterlimit="10" stroke-width="1.039"/>
        <path id="Path_513" data-name="Path 513" d="M2016.522,3424.588l22.864,38.877h-45.6Z" fill="#4d4d4d"/>
        <path id="Path_514" data-name="Path 514" d="M2059.438,3459.984" fill="none" stroke="#f0f" stroke-miterlimit="10" stroke-width="1.039"/>
        <path id="Path_515" data-name="Path 515" d="M2039.385,3463.465l34.357-19.819-11.5-19.058Z" fill="#999"/>
        <path id="Path_516" data-name="Path 516" d="M2048.2,3479.653" fill="none" stroke="#f0f" stroke-miterlimit="10" stroke-width="1.039"/>
        <path id="Path_517" data-name="Path 517" d="M2039.385,3463.465h45.853l-11.5-19.819Z" fill="#333"/>
        <path id="Path_518" data-name="Path 518" d="M2108.31,3423.524l7.693,41.568-18.506-33.974Z" fill="#4d4d4d"/>
        <path id="Path_519" data-name="Path 519" d="M2085.238,3463.468l30.767.561-18.506-32.908Z" fill="#333"/>
        <path id="Path_520" data-name="Path 520" d="M1993.787,3463.465l-11.9,33.3-19.518-33.3Z" fill="#999"/>
        <path id="Path_521" data-name="Path 521" d="M1962.371,3463.465l19.518,33.3-11.6,6.855-7.92-38.531" fill="#4d4d4d"/>
        <path id="Path_522" data-name="Path 522" d="M1993.787,3463.465l22.735,40.158-34.635-6.855Z" fill="#333"/>
        <path id="Path_523" data-name="Path 523" d="M2039.386,3463.465l-.2,40.158h-22.665Z" fill="#333"/>
        <path id="Path_524" data-name="Path 524" d="M2085.238,3463.465l12.261,33.3,10.813-20.18Z" fill="#333"/>
        <path id="Path_525" data-name="Path 525" d="M2116,3464.027l-7.693,12.561-23.074-13.123Z" fill="#4d4d4d"/>
        <path id="Path_526" data-name="Path 526" d="M2097.5,3496.768l11.039,7.081,7.467-39.823Z" fill="#999"/>
        <path id="Path_527" data-name="Path 527" d="M2085.238,3463.465h-22.99l11.5,20.079Z" fill="#4d4d4d"/>
        <path id="Path_528" data-name="Path 528" d="M2039.188,3503.623h23.124l-22.926-40.158Z" fill="#999"/>
        <path id="Path_529" data-name="Path 529" d="M2097.5,3496.768l-21.2,33.132,32.241-26.051Z" fill="#4d4d4d"/>
        <path id="Path_530" data-name="Path 530" d="M2062.31,3503.623l15.47,26.3,19.718-33.16Z" fill="#333"/>
        <path id="Path_531" data-name="Path 531" d="M2062.31,3503.623V3529.9H2076.3Z" fill="#4d4d4d"/>
        <path id="Path_532" data-name="Path 532" d="M2039.188,3529.9l23.124-26.277V3529.9Z" fill="#999"/>
        <path id="Path_533" data-name="Path 533" d="M2039.3,3543.672l-.113-13.772h38.538Z" fill="#333"/>
        <path id="Path_534" data-name="Path 534" d="M2016.522,3503.623l22.666,26.277,23.124-26.277Z" fill="#4d4d4d"/>
        <path id="Path_535" data-name="Path 535" d="M2016.522,3529.9h22.666l-22.666-26.277Z" fill="#333"/>
        <path id="Path_536" data-name="Path 536" d="M1981.887,3496.768l19.4,33.132-31-26.277Z" fill="#333"/>
        <path id="Path_537" data-name="Path 537" d="M2016.522,3503.623l-15.235,26.277-19.4-33.132Z" fill="#4d4d4d"/>
        <path id="Path_538" data-name="Path 538" d="M2016.522,3529.9h-15.235l15.235-26.277Z" fill="#999"/>
        <path id="Path_539" data-name="Path 539" d="M2016.522,3396.825v27.763l22.666-27.444Z" fill="#4d4d4d"/>
        <path id="Path_540" data-name="Path 540" d="M2039.3,3383.26l-.113,13.885-38.126-.319Z" fill="#999"/>
        <path id="Path_541" data-name="Path 541" d="M2016.522,3424.588h22.9l-.032,38.877Z" fill="#333"/>
        <path id="Path_542" data-name="Path 542" d="M2085.237,3463.465l12.261,33.3-35.188,6.855Z" fill="#999"/>
        <path id="Path_543" data-name="Path 543" d="M2039.417,3424.588l-.032,38.877,22.862-38.877Z" fill="#4d4d4d"/>
        <path id="Path_544" data-name="Path 544" d="M1993.787,3463.465h45.6l-34.007,20.472Z" fill="#999"/>
        <path id="Path_545" data-name="Path 545" d="M2039.3,3543.672l-.113-13.772h-37.9Z" fill="#4d4d4d"/>
        <path id="Path_546" data-name="Path 546" d="M1981.271,3430.145l12.517,33.32,22.735-38.877Z" fill="#333"/>
      </g>
    </g>
  </g>
</svg>
