<svg xmlns="http://www.w3.org/2000/svg" xmlns:xlink="http://www.w3.org/1999/xlink" width="1366.104" height="326.767" viewBox="0 0 1366.104 326.767">
  <defs>
    <clipPath id="clip-path">
      <rect id="Rectangle_42" data-name="Rectangle 42" width="1366.104" height="326.766" transform="translate(4999.49 4704.888)" fill="none"/>
    </clipPath>
    <linearGradient id="linear-gradient" x1="0.25" y1="0.933" x2="0.75" y2="0.067" gradientUnits="objectBoundingBox">
      <stop offset="0" stop-color="#1a1a1a"/>
      <stop offset="0.734" stop-color="#2d2d2d"/>
      <stop offset="0.999" stop-color="#363636"/>
    </linearGradient>
  </defs>
  <g id="Group_139" data-name="Group 139" transform="translate(-4999.49 -4704.888)">
    <g id="Group_138" data-name="Group 138" clip-path="url(#clip-path)">
      <rect id="Rectangle_42-2" data-name="Rectangle 42" width="1366.104" height="326.766" transform="translate(4999.49 4704.888)" fill="#1a1a1a"/>
      <path id="Path_135" data-name="Path 135" d="M5682.442,5452.164l-.25-.145L4682.9,4875.077l.75-.433,999-576.771.25.145,999.294,576.943-.75.432ZM4684.9,4875.077l997.543,575.932,997.744-576.048-997.543-575.932ZM5714.91,5432.553l-998.544-576.511-.5.867,998.543,576.51Zm32.217-18.6-998.544-576.51-.5.866,998.544,576.511Zm32.218-18.6L4780.8,4818.841l-.5.866,998.543,576.51Zm32.217-18.6-998.544-576.51-.5.867,998.544,576.509Zm32.218-18.6-998.544-576.51-.5.866,998.543,576.511Zm32.217-18.6-998.544-576.51-.5.867,998.544,576.51Zm32.218-18.6-998.544-576.511-.5.867,998.543,576.51Zm32.218-18.6-998.544-576.51-.5.866,998.543,576.51Zm32.218-18.6-998.545-576.51-.5.866,998.544,576.511Zm32.217-18.6-998.544-576.51-.5.867,998.544,576.509Zm32.218-18.6-998.545-576.51-.5.866,998.544,576.511Zm32.217-18.6-998.544-576.51-.5.867L6068.8,5228.81Zm32.218-18.6-998.545-576.511-.5.867,998.544,576.51Zm32.217-18.6-998.544-576.51-.5.866,998.544,576.51Zm32.218-18.6-998.544-576.51-.5.866,998.543,576.511Zm32.217-18.6L5199.63,4577.03l-.5.867,998.544,576.509Zm32.218-18.6L5231.847,4558.43l-.5.866,998.543,576.51Zm32.217-18.6-998.543-576.51-.5.867,998.544,576.51Zm32.218-18.6-998.544-576.511-.5.867,998.543,576.51Zm32.217-18.6L5328.5,4502.627l-.5.866L6326.543,5080Zm32.218-18.6-998.544-576.51-.5.866L6358.76,5061.4Zm32.218-18.6-998.544-576.511-.5.867,998.544,576.51Zm32.218-18.6-998.545-576.509-.5.866L6423.2,5024.2Zm32.217-18.6-998.544-576.51-.5.867,998.544,576.51Zm32.218-18.6-998.545-576.511-.5.867L6487.631,4987Zm32.217-18.6-998.544-576.51-.5.866,998.544,576.51Zm32.218-18.6-998.544-576.51-.5.866L6552.066,4949.8Zm32.217-18.6L5586.24,4353.82l-.5.867,998.544,576.51Zm32.218-18.6-998.544-576.511-.5.867L6616.5,4912.6Zm32.217-18.6-998.543-576.509-.5.866L6648.719,4894Zm.007-36.331-.5-.866L5649.98,5432.556l.5.866Zm-32.211-18.6-.5-.867L5617.77,5413.958l.5.867Zm-32.211-18.6-.5-.866-998.744,576.624.5.867Zm-32.212-18.6-.5-.866-998.744,576.624.5.867Zm-32.211-18.6-.5-.866-998.745,576.624.5.866Zm-32.211-18.6-.5-.867-998.745,576.626.5.866Zm-32.211-18.6-.5-.867-998.744,576.625.5.867Zm-32.211-18.6-.5-.867L5424.5,5302.376l.5.867Zm-32.211-18.6-.5-.866-998.744,576.625.5.867Zm-32.211-18.6-.5-.866-998.744,576.625.5.866Zm-32.211-18.6-.5-.866-998.746,576.625.5.866Zm-32.211-18.6-.5-.866-998.746,576.625.5.866Zm-32.211-18.6-.5-.867-998.745,576.625.5.866Zm-32.211-18.6-.5-.866-998.745,576.624.5.867Zm-32.211-18.6-.5-.866L5199.025,5172.2l.5.867Zm-32.211-18.6-.5-.866L5166.814,5153.6l.5.866Zm-32.211-18.6-.5-.867L5134.6,5135l.5.866Zm-32.211-18.6-.5-.867L5102.392,5116.4l.5.867Zm-32.211-18.6-.5-.867-998.745,576.625.5.867Zm-32.212-18.6-.5-.866L5037.97,5079.211l.5.867Zm-32.211-18.6-.5-.866-998.745,576.625.5.866Zm-32.211-18.6-.5-.866-998.745,576.625.5.866Zm-32.211-18.6-.5-.867L4941.337,5023.42l.5.866Zm-32.211-18.6-.5-.867-998.745,576.625.5.866Zm-32.211-18.6-.5-.866-998.745,576.624.5.867Zm-32.211-18.6-.5-.866L4844.7,4967.629l.5.866Zm-32.211-18.6-.5-.866-998.745,576.625.5.866Zm-32.211-18.6-.5-.866-998.745,576.625.5.866Zm-32.212-18.6-.5-.867L4748.07,4911.837l.5.867Zm-32.211-18.6-.5-.867L4715.859,4893.24l.5.867Z" opacity="0.65" fill="url(#linear-gradient)"/>
    </g>
  </g>
</svg>
