<svg xmlns="http://www.w3.org/2000/svg" xmlns:xlink="http://www.w3.org/1999/xlink" width="133.504" height="133.504" viewBox="0 0 133.504 133.504">
  <defs>
    <filter id="Ellipse_35" x="0" y="0" width="133.504" height="133.504" filterUnits="userSpaceOnUse">
      <feOffset dy="1.5" input="SourceAlpha"/>
      <feGaussianBlur stdDeviation="3" result="blur"/>
      <feFlood flood-color="#454545" flood-opacity="0.059"/>
      <feComposite operator="in" in2="blur"/>
      <feComposite in="SourceGraphic"/>
    </filter>
    <linearGradient id="linear-gradient" x1="-0.924" y1="-1.121" x2="0.864" y2="0.884" gradientUnits="objectBoundingBox">
      <stop offset="0" stop-color="#b9006e"/>
      <stop offset="1" stop-color="#fd8677"/>
    </linearGradient>
  </defs>
  <g id="Group_176" data-name="Group 176" transform="translate(2.043 0.855)">
    <g transform="matrix(1, 0, 0, 1, -2.04, -0.86)" filter="url(#Ellipse_35)">
      <ellipse id="Ellipse_35-2" data-name="Ellipse 35" cx="57.752" cy="57.752" rx="57.752" ry="57.752" transform="translate(9 7.5)" fill="#fff"/>
    </g>
    <g id="Group_155" data-name="Group 155" transform="translate(0 0)">
      <g id="Group_108" data-name="Group 108" transform="translate(0 0)">
        <ellipse id="Ellipse_31" data-name="Ellipse 31" cx="47.192" cy="47.708" rx="47.192" ry="47.708" transform="translate(0 81.74) rotate(-60)" fill="url(#linear-gradient)"/>
      </g>
      <g id="Group_168" data-name="Group 168" transform="translate(42.148 34.102)">
        <g id="Group_150" data-name="Group 150">
          <path id="Path_139" data-name="Path 139" d="M2156.856,4812.788H2111.2V4751.4l36.133.042,9.568,9.532Z" transform="translate(-2111.196 -4751.399)" fill="#fff" opacity="0.18" style="isolation: isolate"/>
          <path id="Path_140" data-name="Path 140" d="M2159.448,4760.981l-9.594-.179v-9.4Z" transform="translate(-2113.787 -4751.399)" fill="#fff" opacity="0.42" style="isolation: isolate"/>
        </g>
        <path id="Path_141" data-name="Path 141" d="M2116.788,4751.4v13.335l8.065-2.908,8.064,2.908V4751.4Z" transform="translate(-2110.528 -4751.399)" fill="#fff"/>
        <line id="Line_17" data-name="Line 17" x2="25.341" transform="translate(9.939 26.32)" fill="none" stroke="#fff" stroke-linecap="round" stroke-miterlimit="10" stroke-width="2.161" opacity="0.3"/>
        <line id="Line_18" data-name="Line 18" x2="25.341" transform="translate(9.939 36.707)" fill="none" stroke="#fff" stroke-linecap="round" stroke-miterlimit="10" stroke-width="2.161" opacity="0.3"/>
        <line id="Line_19" data-name="Line 19" x2="25.341" transform="translate(9.939 47.093)" fill="none" stroke="#fff" stroke-linecap="round" stroke-miterlimit="10" stroke-width="2.161" opacity="0.3"/>
      </g>
    </g>
  </g>
</svg>
