<svg xmlns="http://www.w3.org/2000/svg" width="601.688" height="141.571" viewBox="0 0 601.688 141.571">
  <g id="Group_245" data-name="Group 245" transform="translate(489.073 277.45)">
    <rect id="Rectangle_133" data-name="Rectangle 133" width="2" height="17.348" transform="translate(-483.076 -146.219) rotate(-59.915)" fill="#fafafa"/>
    <rect id="Rectangle_134" data-name="Rectangle 134" width="2" height="30.79" transform="translate(-452.61 -152.957) rotate(-59.917)" fill="#fafafa"/>
    <rect id="Rectangle_135" data-name="Rectangle 135" width="2" height="44.233" transform="translate(-422.143 -159.695) rotate(-59.915)" fill="#fafafa"/>
    <rect id="Rectangle_136" data-name="Rectangle 136" width="2" height="72.508" transform="translate(-404.897 -174.091) rotate(-59.915)" fill="#fafafa"/>
    <rect id="Rectangle_137" data-name="Rectangle 137" width="2" height="70.673" transform="matrix(0.501, -0.865, 0.865, 0.501, -361.211, -173.171)" fill="#fafafa"/>
    <rect id="Rectangle_138" data-name="Rectangle 138" width="2" height="92.87" transform="translate(-337.917 -184.065) rotate(-59.915)" fill="#fafafa"/>
    <rect id="Rectangle_139" data-name="Rectangle 139" width="2" height="98.022" transform="matrix(0.501, -0.865, 0.865, 0.501, -300.279, -186.648)" fill="#fafafa"/>
    <rect id="Rectangle_140" data-name="Rectangle 140" width="2" height="116.024" transform="translate(-273.758 -195.672) rotate(-59.915)" fill="#fafafa"/>
    <rect id="Rectangle_141" data-name="Rectangle 141" width="2" height="128.122" transform="translate(-239.346 -200.124) rotate(-59.915)" fill="#fafafa"/>
    <rect id="Rectangle_142" data-name="Rectangle 142" width="2" height="147.403" transform="translate(-213.933 -209.79) rotate(-59.916)" fill="#fafafa"/>
    <rect id="Rectangle_143" data-name="Rectangle 143" width="2" height="151.324" transform="matrix(0.501, -0.865, 0.865, 0.501, -178.415, -213.6)" fill="#fafafa"/>
    <rect id="Rectangle_144" data-name="Rectangle 144" width="2" height="164.402" transform="matrix(0.501, -0.865, 0.865, 0.501, -147.633, -220.156)" fill="#fafafa"/>
    <rect id="Rectangle_145" data-name="Rectangle 145" width="2" height="194.696" transform="translate(-128.564 -233.496) rotate(-59.916)" fill="#fafafa"/>
    <rect id="Rectangle_146" data-name="Rectangle 146" width="2" height="194.134" transform="matrix(0.501, -0.865, 0.865, 0.501, -89.165, -235.06)" fill="#fafafa"/>
    <rect id="Rectangle_147" data-name="Rectangle 147" width="2" height="203.822" transform="translate(-65.579 -245.784) rotate(-59.916)" fill="#fafafa"/>
    <rect id="Rectangle_148" data-name="Rectangle 148" width="2" height="158.052" transform="matrix(0.501, -0.865, 0.865, 0.501, -26.014, -247.251)" fill="#fafafa"/>
    <rect id="Rectangle_149" data-name="Rectangle 149" width="2" height="129.244" transform="translate(-0.223 -256.698) rotate(-59.915)" fill="#fafafa"/>
    <rect id="Rectangle_150" data-name="Rectangle 150" width="2" height="88.712" transform="matrix(0.501, -0.865, 0.865, 0.501, 34.85, -260.768)" fill="#fafafa"/>
    <rect id="Rectangle_151" data-name="Rectangle 151" width="2" height="58.272" transform="translate(60.325 -270.397) rotate(-59.915)" fill="#fafafa"/>
    <rect id="Rectangle_152" data-name="Rectangle 152" width="2" height="21.238" transform="matrix(0.501, -0.865, 0.865, 0.501, 93.233, -275.72)" fill="#fafafa"/>
    <rect id="Rectangle_153" data-name="Rectangle 153" width="15.389" height="2" transform="translate(97.468 -137.631) rotate(-30.071)" fill="#fafafa"/>
    <rect id="Rectangle_154" data-name="Rectangle 154" width="62.207" height="2" transform="matrix(0.865, -0.501, 0.501, 0.865, 56.922, -138.564)" fill="#fafafa"/>
    <rect id="Rectangle_155" data-name="Rectangle 155" width="112.034" height="2" transform="matrix(0.866, -0.5, 0.5, 0.866, 14.583, -137.633)" fill="#fafafa"/>
    <rect id="Rectangle_156" data-name="Rectangle 156" width="158.915" height="2" transform="matrix(0.866, -0.5, 0.5, 0.866, -26.017, -138.578)" fill="#fafafa"/>
    <rect id="Rectangle_157" data-name="Rectangle 157" width="206.348" height="2" transform="matrix(0.865, -0.501, 0.501, 0.865, -67.793, -139.461)" fill="#fafafa"/>
    <rect id="Rectangle_158" data-name="Rectangle 158" width="258.288" height="1.999" transform="translate(-112.054 -137.629) rotate(-30.009)" fill="#fafafa"/>
    <rect id="Rectangle_159" data-name="Rectangle 159" width="267.174" height="2" transform="matrix(0.865, -0.501, 0.501, 0.865, -152.353, -139.221)" fill="#fafafa"/>
    <rect id="Rectangle_160" data-name="Rectangle 160" width="246.14" height="2" transform="matrix(0.865, -0.501, 0.501, 0.865, -197.224, -137.61)" fill="#fafafa"/>
    <rect id="Rectangle_161" data-name="Rectangle 161" width="216.775" height="2" transform="translate(-235.268 -139.234) rotate(-29.97)" fill="#fafafa"/>
    <rect id="Rectangle_162" data-name="Rectangle 162" width="194.695" height="2" transform="matrix(0.865, -0.501, 0.501, 0.865, -281.404, -137.614)" fill="#fafafa"/>
    <rect id="Rectangle_163" data-name="Rectangle 163" width="145.957" height="2" transform="matrix(0.865, -0.501, 0.501, 0.865, -320.712, -139.23)" fill="#fafafa"/>
    <rect id="Rectangle_164" data-name="Rectangle 164" width="122.309" height="2" transform="matrix(0.865, -0.501, 0.501, 0.865, -362.401, -139.465)" fill="#fafafa"/>
    <rect id="Rectangle_165" data-name="Rectangle 165" width="97.284" height="2" transform="matrix(0.865, -0.501, 0.501, 0.865, -404.893, -139.233)" fill="#fafafa"/>
    <rect id="Rectangle_166" data-name="Rectangle 166" width="72.978" height="2" transform="matrix(0.865, -0.501, 0.501, 0.865, -446.983, -139.236)" fill="#fafafa"/>
    <rect id="Rectangle_167" data-name="Rectangle 167" width="29.081" height="2" transform="matrix(0.865, -0.501, 0.501, 0.865, -489.073, -139.239)" fill="#fafafa"/>
  </g>
</svg>
