<svg xmlns="http://www.w3.org/2000/svg" xmlns:xlink="http://www.w3.org/1999/xlink" width="135.056" height="135.056" viewBox="0 0 135.056 135.056">
  <defs>
    <filter id="Ellipse_35" x="0" y="0" width="135.056" height="135.056" filterUnits="userSpaceOnUse">
      <feOffset dy="1.5" input="SourceAlpha"/>
      <feGaussianBlur stdDeviation="3" result="blur"/>
      <feFlood flood-color="#454545" flood-opacity="0.059"/>
      <feComposite operator="in" in2="blur"/>
      <feComposite in="SourceGraphic"/>
    </filter>
    <linearGradient id="linear-gradient" x1="-1.215" y1="-1.229" x2="0.94" y2="1.034" gradientUnits="objectBoundingBox">
      <stop offset="0" stop-color="#ff6b67"/>
      <stop offset="1" stop-color="#fdd95f"/>
    </linearGradient>
  </defs>
  <g id="Group_571" data-name="Group 571" transform="translate(865.954 3334.478)">
    <g transform="matrix(1, 0, 0, 1, -865.95, -3334.48)" filter="url(#Ellipse_35)">
      <ellipse id="Ellipse_35-2" data-name="Ellipse 35" cx="58.528" cy="58.528" rx="58.528" ry="58.528" transform="translate(9 7.5)" fill="#fff"/>
    </g>
    <g id="Group_155" data-name="Group 155" transform="translate(-863 -3333.021)">
      <g id="Group_108" data-name="Group 108" transform="translate(0)">
        <ellipse id="Ellipse_31" data-name="Ellipse 31" cx="47.075" cy="47.588" rx="47.075" ry="47.588" transform="translate(0 81.536) rotate(-60)" fill="url(#linear-gradient)"/>
      </g>
      <g id="Group_164" data-name="Group 164" transform="translate(29.048 29.043)">
        <g id="Group_161" data-name="Group 161" transform="translate(0)" opacity="0.25" style="isolation: isolate">
          <g id="Group_158" data-name="Group 158">
            <path id="Path_143" data-name="Path 143" d="M3012.555,4974.9a1.067,1.067,0,0,1-.8-.353,35.469,35.469,0,0,1,39.917-56.513,1.07,1.07,0,0,1-.821,1.976,33.324,33.324,0,0,0-37.507,53.1,1.071,1.071,0,0,1-.793,1.788Z" transform="translate(-3002.631 -4915.078)" fill="#fff"/>
            <g id="Group_157" data-name="Group 157" transform="translate(44.349)">
              <path id="Path_144" data-name="Path 144" d="M3054.436,4920.392l3.8-1.56-1.562-3.8,2.275.949,1.561,3.8-3.8,1.561Z" transform="translate(-3054.436 -4915.034)" fill="#fff"/>
            </g>
          </g>
          <g id="Group_160" data-name="Group 160" transform="translate(18.648 9.779)">
            <path id="Path_145" data-name="Path 145" d="M3041.336,4987.857a35.1,35.1,0,0,1-15.549-3.584,1.07,1.07,0,1,1,.939-1.923,32.987,32.987,0,0,0,14.609,3.367,33.357,33.357,0,0,0,33.318-33.32,33.024,33.024,0,0,0-10.308-24.095,1.071,1.071,0,0,1,1.479-1.549,35.153,35.153,0,0,1,10.97,25.644,35.534,35.534,0,0,1-12.4,26.917A35.132,35.132,0,0,1,3041.336,4987.857Z" transform="translate(-3024.525 -4926.458)" fill="#fff"/>
            <g id="Group_159" data-name="Group 159" transform="translate(0 54.714)">
              <path id="Path_146" data-name="Path 146" d="M3030.515,4991.51l-3.917,1.231,1.234,3.917-2.186-1.14-1.233-3.916,3.916-1.232Z" transform="translate(-3024.414 -4990.371)" fill="#fff"/>
            </g>
          </g>
        </g>
        <g id="Group_163" data-name="Group 163" transform="translate(17.209 13.938)">
          <g id="Group_162" data-name="Group 162">
            <path id="Path_147" data-name="Path 147" d="M3040.983,4960.023c.007,0,.007-16.513,0-16.513h.007v-12.194h0l-1.21,1.541a17.461,17.461,0,0,1-13.679,6.978l-2.447,0-.715,5.713a23.581,23.581,0,0,0,.884,10.261,21.957,21.957,0,0,0,5.934,9.379l11.235,8.552v-13.713Z" transform="translate(-3022.734 -4931.316)" fill="#fff" opacity="0.2" style="isolation: isolate"/>
            <path id="Path_148" data-name="Path 148" d="M3058.949,4939.832h0a17.461,17.461,0,0,1-13.678-6.975l-1.211-1.541h0l1.21,1.54A17.46,17.46,0,0,0,3058.949,4939.832Z" transform="translate(-3025.804 -4931.316)" fill="#fff"/>
            <path id="Path_149" data-name="Path 149" d="M3062.09,4945.442l-.721-5.61h-2.42a17.46,17.46,0,0,1-13.678-6.975l-1.21-1.54v42.42l11.232-8.552a21.759,21.759,0,0,0,5.615-8.468A23.664,23.664,0,0,0,3062.09,4945.442Z" transform="translate(-3025.804 -4931.316)" fill="#fff"/>
          </g>
        </g>
      </g>
    </g>
  </g>
</svg>
