<svg xmlns="http://www.w3.org/2000/svg" xmlns:xlink="http://www.w3.org/1999/xlink" width="135.658" height="136.408" viewBox="0 0 135.658 136.408">
  <defs>
    <filter id="Ellipse_35" x="0" y="0" width="135.658" height="136.408" filterUnits="userSpaceOnUse">
      <feOffset dy="1.5" input="SourceAlpha"/>
      <feGaussianBlur stdDeviation="3" result="blur"/>
      <feFlood flood-color="#454545" flood-opacity="0.059"/>
      <feComposite operator="in" in2="blur"/>
      <feComposite in="SourceGraphic"/>
    </filter>
    <linearGradient id="linear-gradient" x1="-0.153" y1="-0.278" x2="1.634" y2="1.654" gradientUnits="objectBoundingBox">
      <stop offset="0" stop-color="#b9006e"/>
      <stop offset="0.044" stop-color="#b9006e"/>
      <stop offset="1" stop-color="#ffda61"/>
    </linearGradient>
  </defs>
  <g id="Group_175" data-name="Group 175" transform="translate(3.004 1.507)">
    <g transform="matrix(1, 0, 0, 1, -3, -1.51)" filter="url(#Ellipse_35)">
      <ellipse id="Ellipse_35-2" data-name="Ellipse 35" cx="58.829" cy="59.204" rx="58.829" ry="59.204" transform="translate(9 7.5)" fill="#fff"/>
    </g>
    <g id="Group_155" data-name="Group 155" transform="translate(0 0)">
      <g id="Group_108" data-name="Group 108" transform="translate(0)">
        <ellipse id="Ellipse_31" data-name="Ellipse 31" cx="47.256" cy="47.772" rx="47.256" ry="47.772" transform="translate(0 81.85) rotate(-60)" fill="url(#linear-gradient)"/>
      </g>
      <g id="Group_148" data-name="Group 148" transform="translate(32.343 39.488)">
        <path id="Path_136" data-name="Path 136" d="M1906.108,4829.018a10.418,10.418,0,0,1,3.211-17.09,10.421,10.421,0,1,0-16.336,12.586,13.255,13.255,0,0,0-10.937,13.045v8.789h13.125v-4.286A13.254,13.254,0,0,1,1906.108,4829.018Z" transform="translate(-1882.046 -4806.609)" fill="#fff" opacity="0.1" style="isolation: isolate"/>
        <path id="Path_137" data-name="Path 137" d="M1925.937,4817.63a10.421,10.421,0,1,0-16.336,12.587,13.253,13.253,0,0,0-10.938,13.043v8.79h13.125v-4.285c0-.073.009-.146.009-.218a13.329,13.329,0,0,1,10.928-12.827,10.419,10.419,0,0,1,3.211-17.09Z" transform="translate(-1885.539 -4807.808)" fill="#fff" opacity="0.2" style="isolation: isolate"/>
        <path id="Path_138" data-name="Path 138" d="M1940.732,4835.913a10.425,10.425,0,1,0-14.514.006,13.322,13.322,0,0,0-10.928,12.827c0,.072-.009.144-.009.218v8.79h36.382v-8.835A13.21,13.21,0,0,0,1940.732,4835.913Z" transform="translate(-1889.032 -4809.006)" fill="#fff"/>
      </g>
    </g>
  </g>
</svg>
